# xmcd CD database file
#
# Track frame offsets:
#	150
#	13544
#	26383
#	36466
#	47346
#	60188
#	73218
#	87391
#	98966
#	110351
#	125409
#	138179
#	151116
#	165861
#	180539
#	192564
#	206779
#	223008
#	236787
#	251993
#
# Disc length: 3525 seconds
#
# Revision: 0
# Processed by: cddbd v1.5PL3 Copyright (c) Steve Scherf et al.
# Submitted via: CDex 1.50beta8
#
DISCID=140dc314
DTITLE=ヴィレッジ・シンガーズ - Golden☆Best/亜麻色の髪の乙女
DYEAR=1900
DGENRE=JPop
TTITLE0=亜麻色の髪の乙女
TTITLE1=好きだから
TTITLE2=バラ色の雲
TTITLE3=思い出の指輪
TTITLE4=虹の中のレモン
TTITLE5=星が降るまで
TTITLE6=暗い砂浜
TTITLE7=君を求めて
TTITLE8=落葉とくちづけ
TTITLE9=雨の中の恋
TTITLE10=さらば恋人
TTITLE11=泣きながら恋をした頃
TTITLE12=かえっておいで
TTITLE13=青い果実
TTITLE14=裸足の恋
TTITLE15=X'masなんか来てほしくない
TTITLE16=悲しい星空
TTITLE17=六本木の雨の中で
TTITLE18=ノーチェ・デ・渋谷
TTITLE19=ここより永遠に
EXTD=
EXTT0=
EXTT1=
EXTT2=
EXTT3=
EXTT4=
EXTT5=
EXTT6=
EXTT7=
EXTT8=
EXTT9=
EXTT10=
EXTT11=
EXTT12=
EXTT13=
EXTT14=
EXTT15=
EXTT16=
EXTT17=
EXTT18=
EXTT19=
PLAYORDER=
